# xmcd
#
# Track frame offsets: 
#        150
#        10823
#        20315
#        28815
#        46723
#        68926
#        83516
#        101251
#        112512
#        130648
#        143891
#        161562
#        170845
#        183217
#        192540
#        205100
#
# Disc length: 2826 seconds
#
# Revision: 0
# Processed by: cddbd v1.4PL0 Copyright (c) Steve Scherf et al.
# Submitted via: ExactAudioCopy v0.90b3
#
DISCID=c30b0810
DTITLE=A Close Gathering Of Friends - Music from Salt Fork
DYEAR=2001
DGENRE=Bluegrass
TTITLE0=Salt Fork
TTITLE1=Spring Rain
TTITLE2=Prairie Hymn
TTITLE3=Prairie Lullaby
TTITLE4=Everybody Loves A Cowboy
TTITLE5=Pap
TTITLE6=Forever Decision
TTITLE7=Soldier's Joy
TTITLE8=Daddy's Little Girl
TTITLE9=Red Wing
TTITLE10=Creation
TTITLE11=What Child Is This
TTITLE12=Amazing Grace
TTITLE13=Jerusalem's Ridge
TTITLE14=Heaven's Promised Land
TTITLE15=Times Lost
EXTD=
EXTT0=
EXTT1=
EXTT2=
EXTT3=
EXTT4=
EXTT5=
EXTT6=
EXTT7=
EXTT8=
EXTT9=
EXTT10=
EXTT11=
EXTT12=
EXTT13=
EXTT14=
EXTT15=
PLAYORDER=
